<?xml version="1.0" encoding="UTF-8"?>
<svg width="800" height="1100" xmlns="http://www.w3.org/2000/svg">
  <defs>
    <marker id="arrowhead" markerWidth="10" markerHeight="10" refX="9" refY="3" orient="auto">
      <polygon points="0 0, 10 3, 0 6" fill="black" />
    </marker>
    <marker id="arrowhead-green" markerWidth="10" markerHeight="10" refX="9" refY="3" orient="auto">
      <polygon points="0 0, 10 3, 0 6" fill="green" />
    </marker>
  </defs>
  <rect width="800" height="1100" fill="white"/>
  <text x="400" y="30" font-size="18" font-weight="bold" text-anchor="middle" font-family="Arial, sans-serif">Scenario 1: Connect with Directory (Księgowość)</text>
  <rect x="90" y="80" width="120" height="40" fill="#E6F3FF" stroke="black" stroke-width="2" rx="5"/>
  <text x="150" y="105" font-size="12" font-weight="bold" text-anchor="middle" font-family="Arial, sans-serif">Użytkownik</text>
  <rect x="580" y="80" width="140" height="40" fill="#E6F3FF" stroke="black" stroke-width="2" rx="5"/>
  <text x="650" y="98" font-size="12" font-weight="bold" text-anchor="middle" font-family="Arial, sans-serif">
  <tspan x="650" dy="0">Centrala</tspan>
  <tspan x="650" dy="14">Telefoniczna</tspan>
  </text>
  <line x1="150" y1="130" x2="150" y2="1050" stroke="black" stroke-width="1" stroke-dasharray="5,5"/>
  <line x1="650" y1="130" x2="650" y2="1050" stroke="black" stroke-width="1" stroke-dasharray="5,5"/>
  <text x="400" y="150" font-size="12" font-style="italic" font-weight="bold" text-anchor="middle" fill="blue" font-family="Arial, sans-serif">=== Language Selection ===</text>
  <line x1="150" y1="180" x2="650" y2="180" stroke="black" stroke-width="2" marker-end="url(#arrowhead)"/>
  <text x="400" y="175" font-size="10" text-anchor="middle" font-family="Arial, sans-serif">Dzwoni do centrali</text>
  <line x1="650" y1="220" x2="150" y2="220" stroke="black" stroke-width="2" marker-end="url(#arrowhead)"/>
  <text x="400" y="215" font-size="10" text-anchor="middle" font-family="Arial, sans-serif">Witamy w centrali... / Welcome...</text>
  <line x1="150" y1="260" x2="650" y2="260" stroke="black" stroke-width="2" marker-end="url(#arrowhead)"/>
  <text x="400" y="255" font-size="10" text-anchor="middle" font-family="Arial, sans-serif">Naciska 1 (Polski)</text>
  <line x1="650" y1="300" x2="150" y2="300" stroke="black" stroke-width="2" marker-end="url(#arrowhead)"/>
  <text x="400" y="295" font-size="10" text-anchor="middle" font-family="Arial, sans-serif">Wybrałeś język polski.</text>
  <text x="400" y="350" font-size="12" font-style="italic" font-weight="bold" text-anchor="middle" fill="blue" font-family="Arial, sans-serif">=== Main Menu ===</text>
  <line x1="650" y1="380" x2="150" y2="380" stroke="black" stroke-width="2" marker-end="url(#arrowhead)"/>
  <text x="400" y="375" font-size="10" text-anchor="middle" font-family="Arial, sans-serif">Menu główne: 1-Księgowość, 2-Dział Planowania...</text>
  <line x1="150" y1="420" x2="650" y2="420" stroke="black" stroke-width="2" marker-end="url(#arrowhead)"/>
  <text x="400" y="415" font-size="10" text-anchor="middle" font-family="Arial, sans-serif">Naciska 1 (Księgowość)</text>
  <text x="400" y="470" font-size="12" font-style="italic" font-weight="bold" text-anchor="middle" fill="blue" font-family="Arial, sans-serif">=== Connection ===</text>
  <line x1="650" y1="500" x2="150" y2="500" stroke="black" stroke-width="2" marker-end="url(#arrowhead)"/>
  <text x="400" y="495" font-size="10" text-anchor="middle" font-family="Arial, sans-serif">Łączę z Księgowością. Proszę czekać...</text>
  <path d="M 650 540 L 710 540 L 710 560 L 650 560" stroke="gray" stroke-width="2" fill="none" marker-end="url(#arrowhead)"/>
  <text x="715" y="550" font-size="9" font-family="Arial, sans-serif">Routing call to</text>
  <text x="715" y="562" font-size="9" font-family="Arial, sans-serif">Directory dept</text>
  <line x1="650" y1="580" x2="150" y2="580" stroke="black" stroke-width="2" marker-end="url(#arrowhead)"/>
  <text x="400" y="575" font-size="10" text-anchor="middle" font-family="Arial, sans-serif">Dziękujemy za połączenie.</text>
  <rect x="450" y="640" width="300" height="120" fill="#FFFACD" stroke="orange" stroke-width="2" rx="5"/>
  <text x="460" y="660" font-size="9" font-family="Arial, sans-serif">Conversational principles applied:</text>
  <text x="460" y="674" font-size="9" font-family="Arial, sans-serif">• Cooperation: Clear menu options</text>
  <text x="460" y="688" font-size="9" font-family="Arial, sans-serif">• Goal orientation: Direct path</text>
  <text x="460" y="702" font-size="9" font-family="Arial, sans-serif">• Context awareness: Language choice</text>
  <text x="460" y="716" font-size="9" font-family="Arial, sans-serif">• Brevity: Concise messages</text>
  <text x="460" y="730" font-size="9" font-family="Arial, sans-serif">• Turn-taking: Wait for user input</text>
</svg>
